<svg width="678" height="161" xmlns="http://www.w3.org/2000/svg"><g fill="none" fill-rule="evenodd"><g transform="translate(523 37)"><rect fill="#90A756" width="154.937" height="85" rx="5"/><rect fill="#A0BA5E" x="2.152" y="2.152" width="150.633" height="43.038" rx="5"/><path d="M50.8 36.017c0 4.464-1.394 7.877-4.184 10.241-2.79 2.365-6.756 3.547-11.9 3.547h-3.774v14.752h-8.795V23.08h13.249c5.03 0 8.856 1.083 11.476 3.249 2.62 2.165 3.929 5.395 3.929 9.688zm-19.858 6.582h2.894c2.704 0 4.728-.535 6.07-1.603 1.344-1.069 2.015-2.624 2.015-4.667 0-2.061-.563-3.584-1.688-4.567-1.125-.984-2.889-1.476-5.29-1.476h-4.001V42.6zm36.483 6.043v15.915h-8.794V23.08h12.085c5.637 0 9.807 1.026 12.511 3.078 2.705 2.053 4.057 5.168 4.057 9.348 0 2.44-.671 4.61-2.014 6.511-1.343 1.901-3.244 3.39-5.702 4.468 6.241 9.325 10.307 15.348 12.199 18.072h-9.76l-9.9-15.915h-4.682zm0-7.15h2.837c2.78 0 4.833-.463 6.157-1.39 1.324-.927 1.986-2.383 1.986-4.369 0-1.967-.677-3.366-2.029-4.198-1.352-.833-3.447-1.249-6.284-1.249h-2.667v11.206zm67.208 2.27c0 6.865-1.702 12.142-5.106 15.83-3.405 3.688-8.284 5.532-14.639 5.532-6.355 0-11.234-1.844-14.639-5.532-3.404-3.688-5.106-8.983-5.106-15.887 0-6.903 1.707-12.175 5.12-15.816 3.414-3.64 8.308-5.461 14.682-5.461 6.374 0 11.248 1.834 14.624 5.504 3.376 3.669 5.064 8.945 5.064 15.83zm-30.27 0c0 4.634.88 8.123 2.638 10.468 1.76 2.346 4.388 3.518 7.887 3.518 7.017 0 10.525-4.662 10.525-13.986 0-9.343-3.49-14.015-10.468-14.015-3.5 0-6.138 1.178-7.915 3.532-1.778 2.355-2.667 5.85-2.667 10.483z" fill="#FFF"/></g><g fill="#2E3134"><path d="M328.52 37.36c-27.017 0-40.97 19.323-40.97 43.16 0 23.837 13.61 43.162 40.97 43.162s40.968-19.325 40.968-43.163c0-23.836-13.954-43.16-40.969-43.16zm20.438 43.237c-.02 15.328-5.126 27.743-20.439 27.743-15.313 0-20.42-12.414-20.436-27.743v-.077c.016-15.327 5.124-27.741 20.437-27.741 15.312 0 20.419 12.414 20.438 27.741v.077zM207.553 5.19c0-1.103.885-2.124 1.984-2.282 0 0 13.577-1.95 14.784-2.115 1.366-.187 3.181.798 3.181 2.744v44.236c3.23-3.105 6.785-5.608 10.66-7.515 3.88-1.906 8.428-2.86 13.653-2.86 4.524 0 8.532.776 12.032 2.33 3.502 1.55 6.423 3.73 8.765 6.533 2.342 2.806 4.12 6.155 5.332 10.05 1.21 3.893 1.817 8.182 1.817 12.866v51.352a1.998 1.998 0 0 1-2.005 1.994h-15.942a2.006 2.006 0 0 1-2.004-1.994V69.177c0-5.118-1.171-9.081-3.513-11.888-2.344-2.803-5.857-4.206-10.543-4.206-3.446 0-6.675.79-9.69 2.37-3.016 1.58-5.87 3.73-8.562 6.455v58.617c0 1.104-.896 2-2.004 2h-15.941a2 2 0 0 1-2.004-1.997V5.189zM451.56 100.517V56.836h-13.482c-1.1 0-1.742-.87-1.443-1.915 0 0 2.741-9.59 3.001-10.495.261-.905.941-1.877 2.307-2.07l9.597-1.353 3.508-23.488c.163-1.092 1.18-2.104 2.274-2.26 0 0 9.192-1.31 10.963-1.578 1.673-.253 3.189.965 3.189 2.808v24.518h17.566c1.106 0 2.002.897 2.002 2.005v11.823a2 2 0 0 1-2.002 2.005h-17.566v43.078c0 6.019 3.623 8.319 7.095 8.319 2.123 0 5.03-1.14 7.198-2.158 1.34-.626 3.417-.162 3.954 1.73l2.45 8.645c.302 1.067-.247 2.364-1.226 2.86 0 0-7.283 4.364-17.053 4.364-13.728 0-22.332-8.081-22.332-23.157zM406.976 52.778c-7.084 0-12.657 2.475-12.657 8.432 0 7.44 12.011 9.606 20.234 12.64 5.497 2.027 20.238 5.98 20.238 22.016 0 19.479-15.994 27.807-33.055 27.807-17.062 0-25.4-5.465-25.4-5.465-.962-.527-1.5-1.822-1.2-2.889 0 0 2.104-7.52 2.64-9.387.485-1.68 2.415-2.27 3.645-1.792 4.391 1.712 12.32 4.092 21.283 4.092 9.075 0 13.465-2.803 13.465-8.777 0-7.951-12.254-10.381-20.358-12.967-5.583-1.78-20.36-5.93-20.36-23.566 0-17.373 15.082-25.524 31.202-25.524 13.645 0 23.507 4.691 23.507 4.691 1.01.426 1.585 1.634 1.284 2.697 0 0-2.24 7.894-2.653 9.357-.489 1.739-1.899 2.537-3.667 1.957-3.888-1.277-11.197-3.322-18.148-3.322zM196.663 37.495c-6.695.776-11.472 3.963-14.562 6.93-6.068-4.81-14.49-7.105-23.944-7.105-18.953 0-33.76 9.252-33.76 29.426 0 11.582 4.873 19.562 12.614 24.26-5.749 2.752-9.577 8.592-9.577 14.333 0 9.604 7.501 12.612 7.501 12.612s-13.116 6.439-13.116 19.32c0 16.492 15.004 23.16 33.338 23.16 26.428 0 44.61-11.041 44.61-31.313 0-12.477-9.439-19.364-30.009-20.183-12.207-.488-20.114-.932-22.073-1.588-2.588-.87-3.86-2.965-3.86-5.28 0-2.554 2.074-4.986 5.345-6.656 2.853.51 5.863.763 8.99.763 18.968 0 33.761-9.225 33.761-29.427 0-4.898-.874-9.15-2.464-12.784 2.787-1.504 8.334-2.246 8.334-2.246 1.091-.174 1.976-1.213 1.975-2.31l-.001-9.132c0-1.88-1.588-2.955-3.102-2.78zm-49.13 85.133s9.954.381 19.9.847c11.172.523 14.654 2.958 14.654 8.81 0 7.15-9.71 14.104-23.28 14.104-12.88 0-19.314-4.533-19.314-12.08 0-4.33 2.26-9.173 8.04-11.68zm10.66-40.536c-8.978 0-15.983-4.824-15.983-15.346 0-10.523 7.011-15.346 15.983-15.346 8.974 0 15.984 4.81 15.984 15.346 0 10.536-7.002 15.346-15.984 15.346z"/><g opacity=".6" transform="translate(0 36)"><rect x=".209" y="69.017" width="33.643" height="17.014" rx="4"/><rect x="50.672" y="69.017" width="33.622" height="17.014" rx="4"/><rect x=".184" y="34.99" width="84.121" height="17.014" rx="4"/><rect x=".209" y=".964" width="50.469" height="17.013" rx="4"/><rect x="67.494" y=".964" width="16.821" height="17.013" rx="4"/></g></g></g></svg>
